<?xml version="1.0" encoding="utf-8" standalone="no"?>
<!DOCTYPE svg PUBLIC "-//W3C//DTD SVG 1.1//EN"
  "http://www.w3.org/Graphics/SVG/1.1/DTD/svg11.dtd">
<svg xmlns:xlink="http://www.w3.org/1999/xlink" width="429.005625pt" height="331.434688pt" viewBox="0 0 429.005625 331.434688" xmlns="http://www.w3.org/2000/svg" version="1.1">
 <metadata>
  <rdf:RDF xmlns:dc="http://purl.org/dc/elements/1.1/" xmlns:cc="http://creativecommons.org/ns#" xmlns:rdf="http://www.w3.org/1999/02/22-rdf-syntax-ns#">
   <cc:Work>
    <dc:type rdf:resource="http://purl.org/dc/dcmitype/StillImage"/>
    <dc:date>2025-05-14T16:46:14.604210</dc:date>
    <dc:format>image/svg+xml</dc:format>
    <dc:creator>
     <cc:Agent>
      <dc:title>Matplotlib v3.8.0, https://matplotlib.org/</dc:title>
     </cc:Agent>
    </dc:creator>
   </cc:Work>
  </rdf:RDF>
 </metadata>
 <defs>
  <style type="text/css">*{stroke-linejoin: round; stroke-linecap: butt}</style>
 </defs>
 <g id="figure_1">
  <g id="patch_1">
   <path d="M 0 331.434688 
L 429.005625 331.434688 
L 429.005625 0 
L 0 0 
z
" style="fill: #ffffff"/>
  </g>
  <g id="axes_1">
   <g id="patch_2">
    <path d="M 59.690625 239.758125 
L 394.490625 239.758125 
L 394.490625 22.318125 
L 59.690625 22.318125 
z
" style="fill: #ffffff"/>
   </g>
   <g id="patch_3">
    <path d="M 74.908807 239.758125 
L 95.54363 239.758125 
L 95.54363 176.056775 
L 74.908807 176.056775 
z
" clip-path="url(#p2d2db6c352)" style="fill: #ff0000"/>
   </g>
   <g id="patch_4">
    <path d="M 100.702335 239.758125 
L 121.337158 239.758125 
L 121.337158 168.732681 
L 100.702335 168.732681 
z
" clip-path="url(#p2d2db6c352)" style="fill: #ff7f50"/>
   </g>
   <g id="patch_5">
    <path d="M 126.495864 239.758125 
L 147.130687 239.758125 
L 147.130687 164.778786 
L 126.495864 164.778786 
z
" clip-path="url(#p2d2db6c352)" style="fill: #ff7f50"/>
   </g>
   <g id="patch_6">
    <path d="M 152.289392 239.758125 
L 172.924215 239.758125 
L 172.924215 164.441259 
L 152.289392 164.441259 
z
" clip-path="url(#p2d2db6c352)" style="fill: #ff0000"/>
   </g>
   <g id="patch_7">
    <path d="M 178.082921 239.758125 
L 198.717744 239.758125 
L 198.717744 148.862966 
L 178.082921 148.862966 
z
" clip-path="url(#p2d2db6c352)" style="fill: #ff7f50"/>
   </g>
   <g id="patch_8">
    <path d="M 203.876449 239.758125 
L 224.511272 239.758125 
L 224.511272 141.109983 
L 203.876449 141.109983 
z
" clip-path="url(#p2d2db6c352)" style="fill: #ff7f50"/>
   </g>
   <g id="patch_9">
    <path d="M 229.669978 239.758125 
L 250.304801 239.758125 
L 250.304801 161.525325 
L 229.669978 161.525325 
z
" clip-path="url(#p2d2db6c352)" style="fill: #ff7f50"/>
   </g>
   <g id="patch_10">
    <path d="M 255.463506 239.758125 
L 276.098329 239.758125 
L 276.098329 144.664174 
L 255.463506 144.664174 
z
" clip-path="url(#p2d2db6c352)" style="fill: #ff7f50"/>
   </g>
   <g id="patch_11">
    <path d="M 281.257035 239.758125 
L 301.891858 239.758125 
L 301.891858 128.248406 
L 281.257035 128.248406 
z
" clip-path="url(#p2d2db6c352)" style="fill: #ff7f50"/>
   </g>
   <g id="patch_12">
    <path d="M 307.050563 239.758125 
L 327.685386 239.758125 
L 327.685386 114.791715 
L 307.050563 114.791715 
z
" clip-path="url(#p2d2db6c352)" style="fill: #d2691e"/>
   </g>
   <g id="patch_13">
    <path d="M 332.844092 239.758125 
L 353.478915 239.758125 
L 353.478915 63.918951 
L 332.844092 63.918951 
z
" clip-path="url(#p2d2db6c352)" style="fill: #ff7f50"/>
   </g>
   <g id="patch_14">
    <path d="M 358.63762 239.758125 
L 379.272443 239.758125 
L 379.272443 70.343394 
L 358.63762 70.343394 
z
" clip-path="url(#p2d2db6c352)" style="fill: #ff7f50"/>
   </g>
   <g id="matplotlib.axis_1">
    <g id="xtick_1">
     <g id="line2d_1">
      <defs>
       <path id="m9f31e6d503" d="M 0 0 
L 0 3.5 
" style="stroke: #000000; stroke-width: 0.8"/>
      </defs>
      <g>
       <use xlink:href="#m9f31e6d503" x="85.226218" y="239.758125" style="stroke: #000000; stroke-width: 0.8"/>
      </g>
     </g>
     <g id="text_1">
      <!-- P0_Ref- -->
      <g transform="translate(87.846531 283.38) rotate(-90) scale(0.1 -0.1)">
       <defs>
        <path id="DejaVuSans-50" d="M 1259 4147 
L 1259 2394 
L 2053 2394 
Q 2494 2394 2734 2622 
Q 2975 2850 2975 3272 
Q 2975 3691 2734 3919 
Q 2494 4147 2053 4147 
L 1259 4147 
z
M 628 4666 
L 2053 4666 
Q 2838 4666 3239 4311 
Q 3641 3956 3641 3272 
Q 3641 2581 3239 2228 
Q 2838 1875 2053 1875 
L 1259 1875 
L 1259 0 
L 628 0 
L 628 4666 
z
" transform="scale(0.015625)"/>
        <path id="DejaVuSans-30" d="M 2034 4250 
Q 1547 4250 1301 3770 
Q 1056 3291 1056 2328 
Q 1056 1369 1301 889 
Q 1547 409 2034 409 
Q 2525 409 2770 889 
Q 3016 1369 3016 2328 
Q 3016 3291 2770 3770 
Q 2525 4250 2034 4250 
z
M 2034 4750 
Q 2819 4750 3233 4129 
Q 3647 3509 3647 2328 
Q 3647 1150 3233 529 
Q 2819 -91 2034 -91 
Q 1250 -91 836 529 
Q 422 1150 422 2328 
Q 422 3509 836 4129 
Q 1250 4750 2034 4750 
z
" transform="scale(0.015625)"/>
        <path id="DejaVuSans-5f" d="M 3263 -1063 
L 3263 -1509 
L -63 -1509 
L -63 -1063 
L 3263 -1063 
z
" transform="scale(0.015625)"/>
        <path id="DejaVuSans-52" d="M 2841 2188 
Q 3044 2119 3236 1894 
Q 3428 1669 3622 1275 
L 4263 0 
L 3584 0 
L 2988 1197 
Q 2756 1666 2539 1819 
Q 2322 1972 1947 1972 
L 1259 1972 
L 1259 0 
L 628 0 
L 628 4666 
L 2053 4666 
Q 2853 4666 3247 4331 
Q 3641 3997 3641 3322 
Q 3641 2881 3436 2590 
Q 3231 2300 2841 2188 
z
M 1259 4147 
L 1259 2491 
L 2053 2491 
Q 2509 2491 2742 2702 
Q 2975 2913 2975 3322 
Q 2975 3731 2742 3939 
Q 2509 4147 2053 4147 
L 1259 4147 
z
" transform="scale(0.015625)"/>
        <path id="DejaVuSans-65" d="M 3597 1894 
L 3597 1613 
L 953 1613 
Q 991 1019 1311 708 
Q 1631 397 2203 397 
Q 2534 397 2845 478 
Q 3156 559 3463 722 
L 3463 178 
Q 3153 47 2828 -22 
Q 2503 -91 2169 -91 
Q 1331 -91 842 396 
Q 353 884 353 1716 
Q 353 2575 817 3079 
Q 1281 3584 2069 3584 
Q 2775 3584 3186 3129 
Q 3597 2675 3597 1894 
z
M 3022 2063 
Q 3016 2534 2758 2815 
Q 2500 3097 2075 3097 
Q 1594 3097 1305 2825 
Q 1016 2553 972 2059 
L 3022 2063 
z
" transform="scale(0.015625)"/>
        <path id="DejaVuSans-66" d="M 2375 4863 
L 2375 4384 
L 1825 4384 
Q 1516 4384 1395 4259 
Q 1275 4134 1275 3809 
L 1275 3500 
L 2222 3500 
L 2222 3053 
L 1275 3053 
L 1275 0 
L 697 0 
L 697 3053 
L 147 3053 
L 147 3500 
L 697 3500 
L 697 3744 
Q 697 4328 969 4595 
Q 1241 4863 1831 4863 
L 2375 4863 
z
" transform="scale(0.015625)"/>
        <path id="DejaVuSans-2d" d="M 313 2009 
L 1997 2009 
L 1997 1497 
L 313 1497 
L 313 2009 
z
" transform="scale(0.015625)"/>
       </defs>
       <use xlink:href="#DejaVuSans-50"/>
       <use xlink:href="#DejaVuSans-30" x="60.302734"/>
       <use xlink:href="#DejaVuSans-5f" x="123.925781"/>
       <use xlink:href="#DejaVuSans-52" x="173.925781"/>
       <use xlink:href="#DejaVuSans-65" x="238.908203"/>
       <use xlink:href="#DejaVuSans-66" x="300.431641"/>
       <use xlink:href="#DejaVuSans-2d" x="330.136719"/>
      </g>
     </g>
    </g>
    <g id="xtick_2">
     <g id="line2d_2">
      <g>
       <use xlink:href="#m9f31e6d503" x="111.019747" y="239.758125" style="stroke: #000000; stroke-width: 0.8"/>
      </g>
     </g>
     <g id="text_2">
      <!-- P0_H20 -->
      <g transform="translate(113.551778 284.395625) rotate(-90) scale(0.1 -0.1)">
       <defs>
        <path id="DejaVuSans-48" d="M 628 4666 
L 1259 4666 
L 1259 2753 
L 3553 2753 
L 3553 4666 
L 4184 4666 
L 4184 0 
L 3553 0 
L 3553 2222 
L 1259 2222 
L 1259 0 
L 628 0 
L 628 4666 
z
" transform="scale(0.015625)"/>
        <path id="DejaVuSans-32" d="M 1228 531 
L 3431 531 
L 3431 0 
L 469 0 
L 469 531 
Q 828 903 1448 1529 
Q 2069 2156 2228 2338 
Q 2531 2678 2651 2914 
Q 2772 3150 2772 3378 
Q 2772 3750 2511 3984 
Q 2250 4219 1831 4219 
Q 1534 4219 1204 4116 
Q 875 4013 500 3803 
L 500 4441 
Q 881 4594 1212 4672 
Q 1544 4750 1819 4750 
Q 2544 4750 2975 4387 
Q 3406 4025 3406 3419 
Q 3406 3131 3298 2873 
Q 3191 2616 2906 2266 
Q 2828 2175 2409 1742 
Q 1991 1309 1228 531 
z
" transform="scale(0.015625)"/>
       </defs>
       <use xlink:href="#DejaVuSans-50"/>
       <use xlink:href="#DejaVuSans-30" x="60.302734"/>
       <use xlink:href="#DejaVuSans-5f" x="123.925781"/>
       <use xlink:href="#DejaVuSans-48" x="173.925781"/>
       <use xlink:href="#DejaVuSans-32" x="249.121094"/>
       <use xlink:href="#DejaVuSans-30" x="312.744141"/>
      </g>
     </g>
    </g>
    <g id="xtick_3">
     <g id="line2d_3">
      <g>
       <use xlink:href="#m9f31e6d503" x="136.813275" y="239.758125" style="stroke: #000000; stroke-width: 0.8"/>
      </g>
     </g>
     <g id="text_3">
      <!-- P0_Buffer 18 -->
      <g transform="translate(139.433588 310.556563) rotate(-90) scale(0.1 -0.1)">
       <defs>
        <path id="DejaVuSans-42" d="M 1259 2228 
L 1259 519 
L 2272 519 
Q 2781 519 3026 730 
Q 3272 941 3272 1375 
Q 3272 1813 3026 2020 
Q 2781 2228 2272 2228 
L 1259 2228 
z
M 1259 4147 
L 1259 2741 
L 2194 2741 
Q 2656 2741 2882 2914 
Q 3109 3088 3109 3444 
Q 3109 3797 2882 3972 
Q 2656 4147 2194 4147 
L 1259 4147 
z
M 628 4666 
L 2241 4666 
Q 2963 4666 3353 4366 
Q 3744 4066 3744 3513 
Q 3744 3084 3544 2831 
Q 3344 2578 2956 2516 
Q 3422 2416 3680 2098 
Q 3938 1781 3938 1306 
Q 3938 681 3513 340 
Q 3088 0 2303 0 
L 628 0 
L 628 4666 
z
" transform="scale(0.015625)"/>
        <path id="DejaVuSans-75" d="M 544 1381 
L 544 3500 
L 1119 3500 
L 1119 1403 
Q 1119 906 1312 657 
Q 1506 409 1894 409 
Q 2359 409 2629 706 
Q 2900 1003 2900 1516 
L 2900 3500 
L 3475 3500 
L 3475 0 
L 2900 0 
L 2900 538 
Q 2691 219 2414 64 
Q 2138 -91 1772 -91 
Q 1169 -91 856 284 
Q 544 659 544 1381 
z
M 1991 3584 
L 1991 3584 
z
" transform="scale(0.015625)"/>
        <path id="DejaVuSans-72" d="M 2631 2963 
Q 2534 3019 2420 3045 
Q 2306 3072 2169 3072 
Q 1681 3072 1420 2755 
Q 1159 2438 1159 1844 
L 1159 0 
L 581 0 
L 581 3500 
L 1159 3500 
L 1159 2956 
Q 1341 3275 1631 3429 
Q 1922 3584 2338 3584 
Q 2397 3584 2469 3576 
Q 2541 3569 2628 3553 
L 2631 2963 
z
" transform="scale(0.015625)"/>
        <path id="DejaVuSans-20" transform="scale(0.015625)"/>
        <path id="DejaVuSans-31" d="M 794 531 
L 1825 531 
L 1825 4091 
L 703 3866 
L 703 4441 
L 1819 4666 
L 2450 4666 
L 2450 531 
L 3481 531 
L 3481 0 
L 794 0 
L 794 531 
z
" transform="scale(0.015625)"/>
        <path id="DejaVuSans-38" d="M 2034 2216 
Q 1584 2216 1326 1975 
Q 1069 1734 1069 1313 
Q 1069 891 1326 650 
Q 1584 409 2034 409 
Q 2484 409 2743 651 
Q 3003 894 3003 1313 
Q 3003 1734 2745 1975 
Q 2488 2216 2034 2216 
z
M 1403 2484 
Q 997 2584 770 2862 
Q 544 3141 544 3541 
Q 544 4100 942 4425 
Q 1341 4750 2034 4750 
Q 2731 4750 3128 4425 
Q 3525 4100 3525 3541 
Q 3525 3141 3298 2862 
Q 3072 2584 2669 2484 
Q 3125 2378 3379 2068 
Q 3634 1759 3634 1313 
Q 3634 634 3220 271 
Q 2806 -91 2034 -91 
Q 1263 -91 848 271 
Q 434 634 434 1313 
Q 434 1759 690 2068 
Q 947 2378 1403 2484 
z
M 1172 3481 
Q 1172 3119 1398 2916 
Q 1625 2713 2034 2713 
Q 2441 2713 2670 2916 
Q 2900 3119 2900 3481 
Q 2900 3844 2670 4047 
Q 2441 4250 2034 4250 
Q 1625 4250 1398 4047 
Q 1172 3844 1172 3481 
z
" transform="scale(0.015625)"/>
       </defs>
       <use xlink:href="#DejaVuSans-50"/>
       <use xlink:href="#DejaVuSans-30" x="60.302734"/>
       <use xlink:href="#DejaVuSans-5f" x="123.925781"/>
       <use xlink:href="#DejaVuSans-42" x="173.925781"/>
       <use xlink:href="#DejaVuSans-75" x="242.529297"/>
       <use xlink:href="#DejaVuSans-66" x="305.908203"/>
       <use xlink:href="#DejaVuSans-66" x="341.113281"/>
       <use xlink:href="#DejaVuSans-65" x="376.318359"/>
       <use xlink:href="#DejaVuSans-72" x="437.841797"/>
       <use xlink:href="#DejaVuSans-20" x="478.955078"/>
       <use xlink:href="#DejaVuSans-31" x="510.742188"/>
       <use xlink:href="#DejaVuSans-38" x="574.365234"/>
      </g>
     </g>
    </g>
    <g id="xtick_4">
     <g id="line2d_4">
      <g>
       <use xlink:href="#m9f31e6d503" x="162.606804" y="239.758125" style="stroke: #000000; stroke-width: 0.8"/>
      </g>
     </g>
     <g id="text_4">
      <!-- P0_Ref+ -->
      <g transform="translate(165.227116 288.701875) rotate(-90) scale(0.1 -0.1)">
       <defs>
        <path id="DejaVuSans-2b" d="M 2944 4013 
L 2944 2272 
L 4684 2272 
L 4684 1741 
L 2944 1741 
L 2944 0 
L 2419 0 
L 2419 1741 
L 678 1741 
L 678 2272 
L 2419 2272 
L 2419 4013 
L 2944 4013 
z
" transform="scale(0.015625)"/>
       </defs>
       <use xlink:href="#DejaVuSans-50"/>
       <use xlink:href="#DejaVuSans-30" x="60.302734"/>
       <use xlink:href="#DejaVuSans-5f" x="123.925781"/>
       <use xlink:href="#DejaVuSans-52" x="173.925781"/>
       <use xlink:href="#DejaVuSans-65" x="238.908203"/>
       <use xlink:href="#DejaVuSans-66" x="300.431641"/>
       <use xlink:href="#DejaVuSans-2b" x="335.636719"/>
      </g>
     </g>
    </g>
    <g id="xtick_5">
     <g id="line2d_5">
      <g>
       <use xlink:href="#m9f31e6d503" x="188.400332" y="239.758125" style="stroke: #000000; stroke-width: 0.8"/>
      </g>
     </g>
     <g id="text_5">
      <!-- P1_Buffer 44 -->
      <g transform="translate(191.020645 310.556563) rotate(-90) scale(0.1 -0.1)">
       <defs>
        <path id="DejaVuSans-34" d="M 2419 4116 
L 825 1625 
L 2419 1625 
L 2419 4116 
z
M 2253 4666 
L 3047 4666 
L 3047 1625 
L 3713 1625 
L 3713 1100 
L 3047 1100 
L 3047 0 
L 2419 0 
L 2419 1100 
L 313 1100 
L 313 1709 
L 2253 4666 
z
" transform="scale(0.015625)"/>
       </defs>
       <use xlink:href="#DejaVuSans-50"/>
       <use xlink:href="#DejaVuSans-31" x="60.302734"/>
       <use xlink:href="#DejaVuSans-5f" x="123.925781"/>
       <use xlink:href="#DejaVuSans-42" x="173.925781"/>
       <use xlink:href="#DejaVuSans-75" x="242.529297"/>
       <use xlink:href="#DejaVuSans-66" x="305.908203"/>
       <use xlink:href="#DejaVuSans-66" x="341.113281"/>
       <use xlink:href="#DejaVuSans-65" x="376.318359"/>
       <use xlink:href="#DejaVuSans-72" x="437.841797"/>
       <use xlink:href="#DejaVuSans-20" x="478.955078"/>
       <use xlink:href="#DejaVuSans-34" x="510.742188"/>
       <use xlink:href="#DejaVuSans-34" x="574.365234"/>
      </g>
     </g>
    </g>
    <g id="xtick_6">
     <g id="line2d_6">
      <g>
       <use xlink:href="#m9f31e6d503" x="214.193861" y="239.758125" style="stroke: #000000; stroke-width: 0.8"/>
      </g>
     </g>
     <g id="text_6">
      <!-- P1_Buffer 25 -->
      <g transform="translate(216.814173 310.556563) rotate(-90) scale(0.1 -0.1)">
       <defs>
        <path id="DejaVuSans-35" d="M 691 4666 
L 3169 4666 
L 3169 4134 
L 1269 4134 
L 1269 2991 
Q 1406 3038 1543 3061 
Q 1681 3084 1819 3084 
Q 2600 3084 3056 2656 
Q 3513 2228 3513 1497 
Q 3513 744 3044 326 
Q 2575 -91 1722 -91 
Q 1428 -91 1123 -41 
Q 819 9 494 109 
L 494 744 
Q 775 591 1075 516 
Q 1375 441 1709 441 
Q 2250 441 2565 725 
Q 2881 1009 2881 1497 
Q 2881 1984 2565 2268 
Q 2250 2553 1709 2553 
Q 1456 2553 1204 2497 
Q 953 2441 691 2322 
L 691 4666 
z
" transform="scale(0.015625)"/>
       </defs>
       <use xlink:href="#DejaVuSans-50"/>
       <use xlink:href="#DejaVuSans-31" x="60.302734"/>
       <use xlink:href="#DejaVuSans-5f" x="123.925781"/>
       <use xlink:href="#DejaVuSans-42" x="173.925781"/>
       <use xlink:href="#DejaVuSans-75" x="242.529297"/>
       <use xlink:href="#DejaVuSans-66" x="305.908203"/>
       <use xlink:href="#DejaVuSans-66" x="341.113281"/>
       <use xlink:href="#DejaVuSans-65" x="376.318359"/>
       <use xlink:href="#DejaVuSans-72" x="437.841797"/>
       <use xlink:href="#DejaVuSans-20" x="478.955078"/>
       <use xlink:href="#DejaVuSans-32" x="510.742188"/>
       <use xlink:href="#DejaVuSans-35" x="574.365234"/>
      </g>
     </g>
    </g>
    <g id="xtick_7">
     <g id="line2d_7">
      <g>
       <use xlink:href="#m9f31e6d503" x="239.987389" y="239.758125" style="stroke: #000000; stroke-width: 0.8"/>
      </g>
     </g>
     <g id="text_7">
      <!-- P2_Buffer 38 -->
      <g transform="translate(242.607702 310.556563) rotate(-90) scale(0.1 -0.1)">
       <defs>
        <path id="DejaVuSans-33" d="M 2597 2516 
Q 3050 2419 3304 2112 
Q 3559 1806 3559 1356 
Q 3559 666 3084 287 
Q 2609 -91 1734 -91 
Q 1441 -91 1130 -33 
Q 819 25 488 141 
L 488 750 
Q 750 597 1062 519 
Q 1375 441 1716 441 
Q 2309 441 2620 675 
Q 2931 909 2931 1356 
Q 2931 1769 2642 2001 
Q 2353 2234 1838 2234 
L 1294 2234 
L 1294 2753 
L 1863 2753 
Q 2328 2753 2575 2939 
Q 2822 3125 2822 3475 
Q 2822 3834 2567 4026 
Q 2313 4219 1838 4219 
Q 1578 4219 1281 4162 
Q 984 4106 628 3988 
L 628 4550 
Q 988 4650 1302 4700 
Q 1616 4750 1894 4750 
Q 2613 4750 3031 4423 
Q 3450 4097 3450 3541 
Q 3450 3153 3228 2886 
Q 3006 2619 2597 2516 
z
" transform="scale(0.015625)"/>
       </defs>
       <use xlink:href="#DejaVuSans-50"/>
       <use xlink:href="#DejaVuSans-32" x="60.302734"/>
       <use xlink:href="#DejaVuSans-5f" x="123.925781"/>
       <use xlink:href="#DejaVuSans-42" x="173.925781"/>
       <use xlink:href="#DejaVuSans-75" x="242.529297"/>
       <use xlink:href="#DejaVuSans-66" x="305.908203"/>
       <use xlink:href="#DejaVuSans-66" x="341.113281"/>
       <use xlink:href="#DejaVuSans-65" x="376.318359"/>
       <use xlink:href="#DejaVuSans-72" x="437.841797"/>
       <use xlink:href="#DejaVuSans-20" x="478.955078"/>
       <use xlink:href="#DejaVuSans-33" x="510.742188"/>
       <use xlink:href="#DejaVuSans-38" x="574.365234"/>
      </g>
     </g>
    </g>
    <g id="xtick_8">
     <g id="line2d_8">
      <g>
       <use xlink:href="#m9f31e6d503" x="265.780918" y="239.758125" style="stroke: #000000; stroke-width: 0.8"/>
      </g>
     </g>
     <g id="text_8">
      <!-- P3_Buffer 59 -->
      <g transform="translate(268.40123 310.556563) rotate(-90) scale(0.1 -0.1)">
       <defs>
        <path id="DejaVuSans-39" d="M 703 97 
L 703 672 
Q 941 559 1184 500 
Q 1428 441 1663 441 
Q 2288 441 2617 861 
Q 2947 1281 2994 2138 
Q 2813 1869 2534 1725 
Q 2256 1581 1919 1581 
Q 1219 1581 811 2004 
Q 403 2428 403 3163 
Q 403 3881 828 4315 
Q 1253 4750 1959 4750 
Q 2769 4750 3195 4129 
Q 3622 3509 3622 2328 
Q 3622 1225 3098 567 
Q 2575 -91 1691 -91 
Q 1453 -91 1209 -44 
Q 966 3 703 97 
z
M 1959 2075 
Q 2384 2075 2632 2365 
Q 2881 2656 2881 3163 
Q 2881 3666 2632 3958 
Q 2384 4250 1959 4250 
Q 1534 4250 1286 3958 
Q 1038 3666 1038 3163 
Q 1038 2656 1286 2365 
Q 1534 2075 1959 2075 
z
" transform="scale(0.015625)"/>
       </defs>
       <use xlink:href="#DejaVuSans-50"/>
       <use xlink:href="#DejaVuSans-33" x="60.302734"/>
       <use xlink:href="#DejaVuSans-5f" x="123.925781"/>
       <use xlink:href="#DejaVuSans-42" x="173.925781"/>
       <use xlink:href="#DejaVuSans-75" x="242.529297"/>
       <use xlink:href="#DejaVuSans-66" x="305.908203"/>
       <use xlink:href="#DejaVuSans-66" x="341.113281"/>
       <use xlink:href="#DejaVuSans-65" x="376.318359"/>
       <use xlink:href="#DejaVuSans-72" x="437.841797"/>
       <use xlink:href="#DejaVuSans-20" x="478.955078"/>
       <use xlink:href="#DejaVuSans-35" x="510.742188"/>
       <use xlink:href="#DejaVuSans-39" x="574.365234"/>
      </g>
     </g>
    </g>
    <g id="xtick_9">
     <g id="line2d_9">
      <g>
       <use xlink:href="#m9f31e6d503" x="291.574446" y="239.758125" style="stroke: #000000; stroke-width: 0.8"/>
      </g>
     </g>
     <g id="text_9">
      <!-- P3_Buffer 51 -->
      <g transform="translate(294.194759 310.556563) rotate(-90) scale(0.1 -0.1)">
       <use xlink:href="#DejaVuSans-50"/>
       <use xlink:href="#DejaVuSans-33" x="60.302734"/>
       <use xlink:href="#DejaVuSans-5f" x="123.925781"/>
       <use xlink:href="#DejaVuSans-42" x="173.925781"/>
       <use xlink:href="#DejaVuSans-75" x="242.529297"/>
       <use xlink:href="#DejaVuSans-66" x="305.908203"/>
       <use xlink:href="#DejaVuSans-66" x="341.113281"/>
       <use xlink:href="#DejaVuSans-65" x="376.318359"/>
       <use xlink:href="#DejaVuSans-72" x="437.841797"/>
       <use xlink:href="#DejaVuSans-20" x="478.955078"/>
       <use xlink:href="#DejaVuSans-35" x="510.742188"/>
       <use xlink:href="#DejaVuSans-31" x="574.365234"/>
      </g>
     </g>
    </g>
    <g id="xtick_10">
     <g id="line2d_10">
      <g>
       <use xlink:href="#m9f31e6d503" x="317.367975" y="239.758125" style="stroke: #000000; stroke-width: 0.8"/>
      </g>
     </g>
     <g id="text_10">
      <!-- P5_Buffer 21 -->
      <g transform="translate(319.988287 310.556563) rotate(-90) scale(0.1 -0.1)">
       <use xlink:href="#DejaVuSans-50"/>
       <use xlink:href="#DejaVuSans-35" x="60.302734"/>
       <use xlink:href="#DejaVuSans-5f" x="123.925781"/>
       <use xlink:href="#DejaVuSans-42" x="173.925781"/>
       <use xlink:href="#DejaVuSans-75" x="242.529297"/>
       <use xlink:href="#DejaVuSans-66" x="305.908203"/>
       <use xlink:href="#DejaVuSans-66" x="341.113281"/>
       <use xlink:href="#DejaVuSans-65" x="376.318359"/>
       <use xlink:href="#DejaVuSans-72" x="437.841797"/>
       <use xlink:href="#DejaVuSans-20" x="478.955078"/>
       <use xlink:href="#DejaVuSans-32" x="510.742188"/>
       <use xlink:href="#DejaVuSans-31" x="574.365234"/>
      </g>
     </g>
    </g>
    <g id="xtick_11">
     <g id="line2d_11">
      <g>
       <use xlink:href="#m9f31e6d503" x="343.161503" y="239.758125" style="stroke: #000000; stroke-width: 0.8"/>
      </g>
     </g>
     <g id="text_11">
      <!-- P7_Buffer 1 -->
      <g transform="translate(345.781816 304.194063) rotate(-90) scale(0.1 -0.1)">
       <defs>
        <path id="DejaVuSans-37" d="M 525 4666 
L 3525 4666 
L 3525 4397 
L 1831 0 
L 1172 0 
L 2766 4134 
L 525 4134 
L 525 4666 
z
" transform="scale(0.015625)"/>
       </defs>
       <use xlink:href="#DejaVuSans-50"/>
       <use xlink:href="#DejaVuSans-37" x="60.302734"/>
       <use xlink:href="#DejaVuSans-5f" x="123.925781"/>
       <use xlink:href="#DejaVuSans-42" x="173.925781"/>
       <use xlink:href="#DejaVuSans-75" x="242.529297"/>
       <use xlink:href="#DejaVuSans-66" x="305.908203"/>
       <use xlink:href="#DejaVuSans-66" x="341.113281"/>
       <use xlink:href="#DejaVuSans-65" x="376.318359"/>
       <use xlink:href="#DejaVuSans-72" x="437.841797"/>
       <use xlink:href="#DejaVuSans-20" x="478.955078"/>
       <use xlink:href="#DejaVuSans-31" x="510.742188"/>
      </g>
     </g>
    </g>
    <g id="xtick_12">
     <g id="line2d_12">
      <g>
       <use xlink:href="#m9f31e6d503" x="368.955032" y="239.758125" style="stroke: #000000; stroke-width: 0.8"/>
      </g>
     </g>
     <g id="text_12">
      <!-- P7_Buffer 25 -->
      <g transform="translate(371.575344 310.556563) rotate(-90) scale(0.1 -0.1)">
       <use xlink:href="#DejaVuSans-50"/>
       <use xlink:href="#DejaVuSans-37" x="60.302734"/>
       <use xlink:href="#DejaVuSans-5f" x="123.925781"/>
       <use xlink:href="#DejaVuSans-42" x="173.925781"/>
       <use xlink:href="#DejaVuSans-75" x="242.529297"/>
       <use xlink:href="#DejaVuSans-66" x="305.908203"/>
       <use xlink:href="#DejaVuSans-66" x="341.113281"/>
       <use xlink:href="#DejaVuSans-65" x="376.318359"/>
       <use xlink:href="#DejaVuSans-72" x="437.841797"/>
       <use xlink:href="#DejaVuSans-20" x="478.955078"/>
       <use xlink:href="#DejaVuSans-32" x="510.742188"/>
       <use xlink:href="#DejaVuSans-35" x="574.365234"/>
      </g>
     </g>
    </g>
    <g id="text_13">
     <!-- Control buffers -->
     <g transform="translate(189.830469 322.155) scale(0.1 -0.1)">
      <defs>
       <path id="DejaVuSans-43" d="M 4122 4306 
L 4122 3641 
Q 3803 3938 3442 4084 
Q 3081 4231 2675 4231 
Q 1875 4231 1450 3742 
Q 1025 3253 1025 2328 
Q 1025 1406 1450 917 
Q 1875 428 2675 428 
Q 3081 428 3442 575 
Q 3803 722 4122 1019 
L 4122 359 
Q 3791 134 3420 21 
Q 3050 -91 2638 -91 
Q 1578 -91 968 557 
Q 359 1206 359 2328 
Q 359 3453 968 4101 
Q 1578 4750 2638 4750 
Q 3056 4750 3426 4639 
Q 3797 4528 4122 4306 
z
" transform="scale(0.015625)"/>
       <path id="DejaVuSans-6f" d="M 1959 3097 
Q 1497 3097 1228 2736 
Q 959 2375 959 1747 
Q 959 1119 1226 758 
Q 1494 397 1959 397 
Q 2419 397 2687 759 
Q 2956 1122 2956 1747 
Q 2956 2369 2687 2733 
Q 2419 3097 1959 3097 
z
M 1959 3584 
Q 2709 3584 3137 3096 
Q 3566 2609 3566 1747 
Q 3566 888 3137 398 
Q 2709 -91 1959 -91 
Q 1206 -91 779 398 
Q 353 888 353 1747 
Q 353 2609 779 3096 
Q 1206 3584 1959 3584 
z
" transform="scale(0.015625)"/>
       <path id="DejaVuSans-6e" d="M 3513 2113 
L 3513 0 
L 2938 0 
L 2938 2094 
Q 2938 2591 2744 2837 
Q 2550 3084 2163 3084 
Q 1697 3084 1428 2787 
Q 1159 2491 1159 1978 
L 1159 0 
L 581 0 
L 581 3500 
L 1159 3500 
L 1159 2956 
Q 1366 3272 1645 3428 
Q 1925 3584 2291 3584 
Q 2894 3584 3203 3211 
Q 3513 2838 3513 2113 
z
" transform="scale(0.015625)"/>
       <path id="DejaVuSans-74" d="M 1172 4494 
L 1172 3500 
L 2356 3500 
L 2356 3053 
L 1172 3053 
L 1172 1153 
Q 1172 725 1289 603 
Q 1406 481 1766 481 
L 2356 481 
L 2356 0 
L 1766 0 
Q 1100 0 847 248 
Q 594 497 594 1153 
L 594 3053 
L 172 3053 
L 172 3500 
L 594 3500 
L 594 4494 
L 1172 4494 
z
" transform="scale(0.015625)"/>
       <path id="DejaVuSans-6c" d="M 603 4863 
L 1178 4863 
L 1178 0 
L 603 0 
L 603 4863 
z
" transform="scale(0.015625)"/>
       <path id="DejaVuSans-62" d="M 3116 1747 
Q 3116 2381 2855 2742 
Q 2594 3103 2138 3103 
Q 1681 3103 1420 2742 
Q 1159 2381 1159 1747 
Q 1159 1113 1420 752 
Q 1681 391 2138 391 
Q 2594 391 2855 752 
Q 3116 1113 3116 1747 
z
M 1159 2969 
Q 1341 3281 1617 3432 
Q 1894 3584 2278 3584 
Q 2916 3584 3314 3078 
Q 3713 2572 3713 1747 
Q 3713 922 3314 415 
Q 2916 -91 2278 -91 
Q 1894 -91 1617 61 
Q 1341 213 1159 525 
L 1159 0 
L 581 0 
L 581 4863 
L 1159 4863 
L 1159 2969 
z
" transform="scale(0.015625)"/>
       <path id="DejaVuSans-73" d="M 2834 3397 
L 2834 2853 
Q 2591 2978 2328 3040 
Q 2066 3103 1784 3103 
Q 1356 3103 1142 2972 
Q 928 2841 928 2578 
Q 928 2378 1081 2264 
Q 1234 2150 1697 2047 
L 1894 2003 
Q 2506 1872 2764 1633 
Q 3022 1394 3022 966 
Q 3022 478 2636 193 
Q 2250 -91 1575 -91 
Q 1294 -91 989 -36 
Q 684 19 347 128 
L 347 722 
Q 666 556 975 473 
Q 1284 391 1588 391 
Q 1994 391 2212 530 
Q 2431 669 2431 922 
Q 2431 1156 2273 1281 
Q 2116 1406 1581 1522 
L 1381 1569 
Q 847 1681 609 1914 
Q 372 2147 372 2553 
Q 372 3047 722 3315 
Q 1072 3584 1716 3584 
Q 2034 3584 2315 3537 
Q 2597 3491 2834 3397 
z
" transform="scale(0.015625)"/>
      </defs>
      <use xlink:href="#DejaVuSans-43"/>
      <use xlink:href="#DejaVuSans-6f" x="69.824219"/>
      <use xlink:href="#DejaVuSans-6e" x="131.005859"/>
      <use xlink:href="#DejaVuSans-74" x="194.384766"/>
      <use xlink:href="#DejaVuSans-72" x="233.59375"/>
      <use xlink:href="#DejaVuSans-6f" x="272.457031"/>
      <use xlink:href="#DejaVuSans-6c" x="333.638672"/>
      <use xlink:href="#DejaVuSans-20" x="361.421875"/>
      <use xlink:href="#DejaVuSans-62" x="393.208984"/>
      <use xlink:href="#DejaVuSans-75" x="456.685547"/>
      <use xlink:href="#DejaVuSans-66" x="520.064453"/>
      <use xlink:href="#DejaVuSans-66" x="555.269531"/>
      <use xlink:href="#DejaVuSans-65" x="590.474609"/>
      <use xlink:href="#DejaVuSans-72" x="651.998047"/>
      <use xlink:href="#DejaVuSans-73" x="693.111328"/>
     </g>
    </g>
   </g>
   <g id="matplotlib.axis_2">
    <g id="ytick_1">
     <g id="line2d_13">
      <defs>
       <path id="m9b57ffc368" d="M 0 0 
L -3.5 0 
" style="stroke: #000000; stroke-width: 0.8"/>
      </defs>
      <g>
       <use xlink:href="#m9b57ffc368" x="59.690625" y="239.758125" style="stroke: #000000; stroke-width: 0.8"/>
      </g>
     </g>
     <g id="text_14">
      <!-- 0 -->
      <g transform="translate(46.328125 243.557344) scale(0.1 -0.1)">
       <use xlink:href="#DejaVuSans-30"/>
      </g>
     </g>
    </g>
    <g id="ytick_2">
     <g id="line2d_14">
      <g>
       <use xlink:href="#m9b57ffc368" x="59.690625" y="201.691106" style="stroke: #000000; stroke-width: 0.8"/>
      </g>
     </g>
     <g id="text_15">
      <!-- 5000 -->
      <g transform="translate(27.240625 205.490325) scale(0.1 -0.1)">
       <use xlink:href="#DejaVuSans-35"/>
       <use xlink:href="#DejaVuSans-30" x="63.623047"/>
       <use xlink:href="#DejaVuSans-30" x="127.246094"/>
       <use xlink:href="#DejaVuSans-30" x="190.869141"/>
      </g>
     </g>
    </g>
    <g id="ytick_3">
     <g id="line2d_15">
      <g>
       <use xlink:href="#m9b57ffc368" x="59.690625" y="163.624087" style="stroke: #000000; stroke-width: 0.8"/>
      </g>
     </g>
     <g id="text_16">
      <!-- 10000 -->
      <g transform="translate(20.878125 167.423306) scale(0.1 -0.1)">
       <use xlink:href="#DejaVuSans-31"/>
       <use xlink:href="#DejaVuSans-30" x="63.623047"/>
       <use xlink:href="#DejaVuSans-30" x="127.246094"/>
       <use xlink:href="#DejaVuSans-30" x="190.869141"/>
       <use xlink:href="#DejaVuSans-30" x="254.492188"/>
      </g>
     </g>
    </g>
    <g id="ytick_4">
     <g id="line2d_16">
      <g>
       <use xlink:href="#m9b57ffc368" x="59.690625" y="125.557068" style="stroke: #000000; stroke-width: 0.8"/>
      </g>
     </g>
     <g id="text_17">
      <!-- 15000 -->
      <g transform="translate(20.878125 129.356287) scale(0.1 -0.1)">
       <use xlink:href="#DejaVuSans-31"/>
       <use xlink:href="#DejaVuSans-35" x="63.623047"/>
       <use xlink:href="#DejaVuSans-30" x="127.246094"/>
       <use xlink:href="#DejaVuSans-30" x="190.869141"/>
       <use xlink:href="#DejaVuSans-30" x="254.492188"/>
      </g>
     </g>
    </g>
    <g id="ytick_5">
     <g id="line2d_17">
      <g>
       <use xlink:href="#m9b57ffc368" x="59.690625" y="87.490049" style="stroke: #000000; stroke-width: 0.8"/>
      </g>
     </g>
     <g id="text_18">
      <!-- 20000 -->
      <g transform="translate(20.878125 91.289267) scale(0.1 -0.1)">
       <use xlink:href="#DejaVuSans-32"/>
       <use xlink:href="#DejaVuSans-30" x="63.623047"/>
       <use xlink:href="#DejaVuSans-30" x="127.246094"/>
       <use xlink:href="#DejaVuSans-30" x="190.869141"/>
       <use xlink:href="#DejaVuSans-30" x="254.492188"/>
      </g>
     </g>
    </g>
    <g id="ytick_6">
     <g id="line2d_18">
      <g>
       <use xlink:href="#m9b57ffc368" x="59.690625" y="49.42303" style="stroke: #000000; stroke-width: 0.8"/>
      </g>
     </g>
     <g id="text_19">
      <!-- 25000 -->
      <g transform="translate(20.878125 53.222248) scale(0.1 -0.1)">
       <use xlink:href="#DejaVuSans-32"/>
       <use xlink:href="#DejaVuSans-35" x="63.623047"/>
       <use xlink:href="#DejaVuSans-30" x="127.246094"/>
       <use xlink:href="#DejaVuSans-30" x="190.869141"/>
       <use xlink:href="#DejaVuSans-30" x="254.492188"/>
      </g>
     </g>
    </g>
    <g id="text_20">
     <!-- Median mRNA production fluo (n=3) -->
     <g transform="translate(14.798437 221.751406) rotate(-90) scale(0.1 -0.1)">
      <defs>
       <path id="DejaVuSans-4d" d="M 628 4666 
L 1569 4666 
L 2759 1491 
L 3956 4666 
L 4897 4666 
L 4897 0 
L 4281 0 
L 4281 4097 
L 3078 897 
L 2444 897 
L 1241 4097 
L 1241 0 
L 628 0 
L 628 4666 
z
" transform="scale(0.015625)"/>
       <path id="DejaVuSans-64" d="M 2906 2969 
L 2906 4863 
L 3481 4863 
L 3481 0 
L 2906 0 
L 2906 525 
Q 2725 213 2448 61 
Q 2172 -91 1784 -91 
Q 1150 -91 751 415 
Q 353 922 353 1747 
Q 353 2572 751 3078 
Q 1150 3584 1784 3584 
Q 2172 3584 2448 3432 
Q 2725 3281 2906 2969 
z
M 947 1747 
Q 947 1113 1208 752 
Q 1469 391 1925 391 
Q 2381 391 2643 752 
Q 2906 1113 2906 1747 
Q 2906 2381 2643 2742 
Q 2381 3103 1925 3103 
Q 1469 3103 1208 2742 
Q 947 2381 947 1747 
z
" transform="scale(0.015625)"/>
       <path id="DejaVuSans-69" d="M 603 3500 
L 1178 3500 
L 1178 0 
L 603 0 
L 603 3500 
z
M 603 4863 
L 1178 4863 
L 1178 4134 
L 603 4134 
L 603 4863 
z
" transform="scale(0.015625)"/>
       <path id="DejaVuSans-61" d="M 2194 1759 
Q 1497 1759 1228 1600 
Q 959 1441 959 1056 
Q 959 750 1161 570 
Q 1363 391 1709 391 
Q 2188 391 2477 730 
Q 2766 1069 2766 1631 
L 2766 1759 
L 2194 1759 
z
M 3341 1997 
L 3341 0 
L 2766 0 
L 2766 531 
Q 2569 213 2275 61 
Q 1981 -91 1556 -91 
Q 1019 -91 701 211 
Q 384 513 384 1019 
Q 384 1609 779 1909 
Q 1175 2209 1959 2209 
L 2766 2209 
L 2766 2266 
Q 2766 2663 2505 2880 
Q 2244 3097 1772 3097 
Q 1472 3097 1187 3025 
Q 903 2953 641 2809 
L 641 3341 
Q 956 3463 1253 3523 
Q 1550 3584 1831 3584 
Q 2591 3584 2966 3190 
Q 3341 2797 3341 1997 
z
" transform="scale(0.015625)"/>
       <path id="DejaVuSans-6d" d="M 3328 2828 
Q 3544 3216 3844 3400 
Q 4144 3584 4550 3584 
Q 5097 3584 5394 3201 
Q 5691 2819 5691 2113 
L 5691 0 
L 5113 0 
L 5113 2094 
Q 5113 2597 4934 2840 
Q 4756 3084 4391 3084 
Q 3944 3084 3684 2787 
Q 3425 2491 3425 1978 
L 3425 0 
L 2847 0 
L 2847 2094 
Q 2847 2600 2669 2842 
Q 2491 3084 2119 3084 
Q 1678 3084 1418 2786 
Q 1159 2488 1159 1978 
L 1159 0 
L 581 0 
L 581 3500 
L 1159 3500 
L 1159 2956 
Q 1356 3278 1631 3431 
Q 1906 3584 2284 3584 
Q 2666 3584 2933 3390 
Q 3200 3197 3328 2828 
z
" transform="scale(0.015625)"/>
       <path id="DejaVuSans-4e" d="M 628 4666 
L 1478 4666 
L 3547 763 
L 3547 4666 
L 4159 4666 
L 4159 0 
L 3309 0 
L 1241 3903 
L 1241 0 
L 628 0 
L 628 4666 
z
" transform="scale(0.015625)"/>
       <path id="DejaVuSans-41" d="M 2188 4044 
L 1331 1722 
L 3047 1722 
L 2188 4044 
z
M 1831 4666 
L 2547 4666 
L 4325 0 
L 3669 0 
L 3244 1197 
L 1141 1197 
L 716 0 
L 50 0 
L 1831 4666 
z
" transform="scale(0.015625)"/>
       <path id="DejaVuSans-70" d="M 1159 525 
L 1159 -1331 
L 581 -1331 
L 581 3500 
L 1159 3500 
L 1159 2969 
Q 1341 3281 1617 3432 
Q 1894 3584 2278 3584 
Q 2916 3584 3314 3078 
Q 3713 2572 3713 1747 
Q 3713 922 3314 415 
Q 2916 -91 2278 -91 
Q 1894 -91 1617 61 
Q 1341 213 1159 525 
z
M 3116 1747 
Q 3116 2381 2855 2742 
Q 2594 3103 2138 3103 
Q 1681 3103 1420 2742 
Q 1159 2381 1159 1747 
Q 1159 1113 1420 752 
Q 1681 391 2138 391 
Q 2594 391 2855 752 
Q 3116 1113 3116 1747 
z
" transform="scale(0.015625)"/>
       <path id="DejaVuSans-63" d="M 3122 3366 
L 3122 2828 
Q 2878 2963 2633 3030 
Q 2388 3097 2138 3097 
Q 1578 3097 1268 2742 
Q 959 2388 959 1747 
Q 959 1106 1268 751 
Q 1578 397 2138 397 
Q 2388 397 2633 464 
Q 2878 531 3122 666 
L 3122 134 
Q 2881 22 2623 -34 
Q 2366 -91 2075 -91 
Q 1284 -91 818 406 
Q 353 903 353 1747 
Q 353 2603 823 3093 
Q 1294 3584 2113 3584 
Q 2378 3584 2631 3529 
Q 2884 3475 3122 3366 
z
" transform="scale(0.015625)"/>
       <path id="DejaVuSans-28" d="M 1984 4856 
Q 1566 4138 1362 3434 
Q 1159 2731 1159 2009 
Q 1159 1288 1364 580 
Q 1569 -128 1984 -844 
L 1484 -844 
Q 1016 -109 783 600 
Q 550 1309 550 2009 
Q 550 2706 781 3412 
Q 1013 4119 1484 4856 
L 1984 4856 
z
" transform="scale(0.015625)"/>
       <path id="DejaVuSans-3d" d="M 678 2906 
L 4684 2906 
L 4684 2381 
L 678 2381 
L 678 2906 
z
M 678 1631 
L 4684 1631 
L 4684 1100 
L 678 1100 
L 678 1631 
z
" transform="scale(0.015625)"/>
       <path id="DejaVuSans-29" d="M 513 4856 
L 1013 4856 
Q 1481 4119 1714 3412 
Q 1947 2706 1947 2009 
Q 1947 1309 1714 600 
Q 1481 -109 1013 -844 
L 513 -844 
Q 928 -128 1133 580 
Q 1338 1288 1338 2009 
Q 1338 2731 1133 3434 
Q 928 4138 513 4856 
z
" transform="scale(0.015625)"/>
      </defs>
      <use xlink:href="#DejaVuSans-4d"/>
      <use xlink:href="#DejaVuSans-65" x="86.279297"/>
      <use xlink:href="#DejaVuSans-64" x="147.802734"/>
      <use xlink:href="#DejaVuSans-69" x="211.279297"/>
      <use xlink:href="#DejaVuSans-61" x="239.0625"/>
      <use xlink:href="#DejaVuSans-6e" x="300.341797"/>
      <use xlink:href="#DejaVuSans-20" x="363.720703"/>
      <use xlink:href="#DejaVuSans-6d" x="395.507812"/>
      <use xlink:href="#DejaVuSans-52" x="492.919922"/>
      <use xlink:href="#DejaVuSans-4e" x="562.402344"/>
      <use xlink:href="#DejaVuSans-41" x="637.207031"/>
      <use xlink:href="#DejaVuSans-20" x="705.615234"/>
      <use xlink:href="#DejaVuSans-70" x="737.402344"/>
      <use xlink:href="#DejaVuSans-72" x="800.878906"/>
      <use xlink:href="#DejaVuSans-6f" x="839.742188"/>
      <use xlink:href="#DejaVuSans-64" x="900.923828"/>
      <use xlink:href="#DejaVuSans-75" x="964.400391"/>
      <use xlink:href="#DejaVuSans-63" x="1027.779297"/>
      <use xlink:href="#DejaVuSans-74" x="1082.759766"/>
      <use xlink:href="#DejaVuSans-69" x="1121.96875"/>
      <use xlink:href="#DejaVuSans-6f" x="1149.751953"/>
      <use xlink:href="#DejaVuSans-6e" x="1210.933594"/>
      <use xlink:href="#DejaVuSans-20" x="1274.3125"/>
      <use xlink:href="#DejaVuSans-66" x="1306.099609"/>
      <use xlink:href="#DejaVuSans-6c" x="1341.304688"/>
      <use xlink:href="#DejaVuSans-75" x="1369.087891"/>
      <use xlink:href="#DejaVuSans-6f" x="1432.466797"/>
      <use xlink:href="#DejaVuSans-20" x="1493.648438"/>
      <use xlink:href="#DejaVuSans-28" x="1525.435547"/>
      <use xlink:href="#DejaVuSans-6e" x="1564.449219"/>
      <use xlink:href="#DejaVuSans-3d" x="1627.828125"/>
      <use xlink:href="#DejaVuSans-33" x="1711.617188"/>
      <use xlink:href="#DejaVuSans-29" x="1775.240234"/>
     </g>
    </g>
   </g>
   <g id="LineCollection_1">
    <path d="M 85.226218 179.326208 
L 85.226218 172.787343 
" clip-path="url(#p2d2db6c352)" style="fill: none; stroke: #000000; stroke-width: 1.5"/>
   </g>
   <g id="line2d_19">
    <defs>
     <path id="m8ed71853ad" d="M 5 0 
L -5 -0 
" style="stroke: #000000"/>
    </defs>
    <g clip-path="url(#p2d2db6c352)">
     <use xlink:href="#m8ed71853ad" x="85.226218" y="179.326208" style="stroke: #000000"/>
    </g>
   </g>
   <g id="line2d_20">
    <g clip-path="url(#p2d2db6c352)">
     <use xlink:href="#m8ed71853ad" x="85.226218" y="172.787343" style="stroke: #000000"/>
    </g>
   </g>
   <g id="LineCollection_2">
    <path d="M 111.019747 171.360225 
L 111.019747 166.105136 
" clip-path="url(#p2d2db6c352)" style="fill: none; stroke: #000000; stroke-width: 1.5"/>
   </g>
   <g id="line2d_21">
    <g clip-path="url(#p2d2db6c352)">
     <use xlink:href="#m8ed71853ad" x="111.019747" y="171.360225" style="stroke: #000000"/>
    </g>
   </g>
   <g id="line2d_22">
    <g clip-path="url(#p2d2db6c352)">
     <use xlink:href="#m8ed71853ad" x="111.019747" y="166.105136" style="stroke: #000000"/>
    </g>
   </g>
   <g id="LineCollection_3">
    <path d="M 136.813275 169.82368 
L 136.813275 159.733892 
" clip-path="url(#p2d2db6c352)" style="fill: none; stroke: #000000; stroke-width: 1.5"/>
   </g>
   <g id="line2d_23">
    <g clip-path="url(#p2d2db6c352)">
     <use xlink:href="#m8ed71853ad" x="136.813275" y="169.82368" style="stroke: #000000"/>
    </g>
   </g>
   <g id="line2d_24">
    <g clip-path="url(#p2d2db6c352)">
     <use xlink:href="#m8ed71853ad" x="136.813275" y="159.733892" style="stroke: #000000"/>
    </g>
   </g>
   <g id="LineCollection_4">
    <path d="M 162.606804 170.002541 
L 162.606804 158.879977 
" clip-path="url(#p2d2db6c352)" style="fill: none; stroke: #000000; stroke-width: 1.5"/>
   </g>
   <g id="line2d_25">
    <g clip-path="url(#p2d2db6c352)">
     <use xlink:href="#m8ed71853ad" x="162.606804" y="170.002541" style="stroke: #000000"/>
    </g>
   </g>
   <g id="line2d_26">
    <g clip-path="url(#p2d2db6c352)">
     <use xlink:href="#m8ed71853ad" x="162.606804" y="158.879977" style="stroke: #000000"/>
    </g>
   </g>
   <g id="LineCollection_5">
    <path d="M 188.400332 155.279551 
L 188.400332 142.446381 
" clip-path="url(#p2d2db6c352)" style="fill: none; stroke: #000000; stroke-width: 1.5"/>
   </g>
   <g id="line2d_27">
    <g clip-path="url(#p2d2db6c352)">
     <use xlink:href="#m8ed71853ad" x="188.400332" y="155.279551" style="stroke: #000000"/>
    </g>
   </g>
   <g id="line2d_28">
    <g clip-path="url(#p2d2db6c352)">
     <use xlink:href="#m8ed71853ad" x="188.400332" y="142.446381" style="stroke: #000000"/>
    </g>
   </g>
   <g id="LineCollection_6">
    <path d="M 214.193861 146.633384 
L 214.193861 135.586582 
" clip-path="url(#p2d2db6c352)" style="fill: none; stroke: #000000; stroke-width: 1.5"/>
   </g>
   <g id="line2d_29">
    <g clip-path="url(#p2d2db6c352)">
     <use xlink:href="#m8ed71853ad" x="214.193861" y="146.633384" style="stroke: #000000"/>
    </g>
   </g>
   <g id="line2d_30">
    <g clip-path="url(#p2d2db6c352)">
     <use xlink:href="#m8ed71853ad" x="214.193861" y="135.586582" style="stroke: #000000"/>
    </g>
   </g>
   <g id="LineCollection_7">
    <path d="M 239.987389 169.066062 
L 239.987389 153.984588 
" clip-path="url(#p2d2db6c352)" style="fill: none; stroke: #000000; stroke-width: 1.5"/>
   </g>
   <g id="line2d_31">
    <g clip-path="url(#p2d2db6c352)">
     <use xlink:href="#m8ed71853ad" x="239.987389" y="169.066062" style="stroke: #000000"/>
    </g>
   </g>
   <g id="line2d_32">
    <g clip-path="url(#p2d2db6c352)">
     <use xlink:href="#m8ed71853ad" x="239.987389" y="153.984588" style="stroke: #000000"/>
    </g>
   </g>
   <g id="LineCollection_8">
    <path d="M 265.780918 156.407143 
L 265.780918 132.921204 
" clip-path="url(#p2d2db6c352)" style="fill: none; stroke: #000000; stroke-width: 1.5"/>
   </g>
   <g id="line2d_33">
    <g clip-path="url(#p2d2db6c352)">
     <use xlink:href="#m8ed71853ad" x="265.780918" y="156.407143" style="stroke: #000000"/>
    </g>
   </g>
   <g id="line2d_34">
    <g clip-path="url(#p2d2db6c352)">
     <use xlink:href="#m8ed71853ad" x="265.780918" y="132.921204" style="stroke: #000000"/>
    </g>
   </g>
   <g id="LineCollection_9">
    <path d="M 291.574446 141.219976 
L 291.574446 115.276836 
" clip-path="url(#p2d2db6c352)" style="fill: none; stroke: #000000; stroke-width: 1.5"/>
   </g>
   <g id="line2d_35">
    <g clip-path="url(#p2d2db6c352)">
     <use xlink:href="#m8ed71853ad" x="291.574446" y="141.219976" style="stroke: #000000"/>
    </g>
   </g>
   <g id="line2d_36">
    <g clip-path="url(#p2d2db6c352)">
     <use xlink:href="#m8ed71853ad" x="291.574446" y="115.276836" style="stroke: #000000"/>
    </g>
   </g>
   <g id="LineCollection_10">
    <path d="M 317.367975 127.912615 
L 317.367975 101.670814 
" clip-path="url(#p2d2db6c352)" style="fill: none; stroke: #000000; stroke-width: 1.5"/>
   </g>
   <g id="line2d_37">
    <g clip-path="url(#p2d2db6c352)">
     <use xlink:href="#m8ed71853ad" x="317.367975" y="127.912615" style="stroke: #000000"/>
    </g>
   </g>
   <g id="line2d_38">
    <g clip-path="url(#p2d2db6c352)">
     <use xlink:href="#m8ed71853ad" x="317.367975" y="101.670814" style="stroke: #000000"/>
    </g>
   </g>
   <g id="LineCollection_11">
    <path d="M 343.161503 95.16549 
L 343.161503 32.672411 
" clip-path="url(#p2d2db6c352)" style="fill: none; stroke: #000000; stroke-width: 1.5"/>
   </g>
   <g id="line2d_39">
    <g clip-path="url(#p2d2db6c352)">
     <use xlink:href="#m8ed71853ad" x="343.161503" y="95.16549" style="stroke: #000000"/>
    </g>
   </g>
   <g id="line2d_40">
    <g clip-path="url(#p2d2db6c352)">
     <use xlink:href="#m8ed71853ad" x="343.161503" y="32.672411" style="stroke: #000000"/>
    </g>
   </g>
   <g id="LineCollection_12">
    <path d="M 368.955032 91.721645 
L 368.955032 48.965144 
" clip-path="url(#p2d2db6c352)" style="fill: none; stroke: #000000; stroke-width: 1.5"/>
   </g>
   <g id="line2d_41">
    <g clip-path="url(#p2d2db6c352)">
     <use xlink:href="#m8ed71853ad" x="368.955032" y="91.721645" style="stroke: #000000"/>
    </g>
   </g>
   <g id="line2d_42">
    <g clip-path="url(#p2d2db6c352)">
     <use xlink:href="#m8ed71853ad" x="368.955032" y="48.965144" style="stroke: #000000"/>
    </g>
   </g>
   <g id="patch_15">
    <path d="M 59.690625 239.758125 
L 59.690625 22.318125 
" style="fill: none; stroke: #000000; stroke-width: 0.8; stroke-linejoin: miter; stroke-linecap: square"/>
   </g>
   <g id="patch_16">
    <path d="M 394.490625 239.758125 
L 394.490625 22.318125 
" style="fill: none; stroke: #000000; stroke-width: 0.8; stroke-linejoin: miter; stroke-linecap: square"/>
   </g>
   <g id="patch_17">
    <path d="M 59.690625 239.758125 
L 394.490625 239.758125 
" style="fill: none; stroke: #000000; stroke-width: 0.8; stroke-linejoin: miter; stroke-linecap: square"/>
   </g>
   <g id="patch_18">
    <path d="M 59.690625 22.318125 
L 394.490625 22.318125 
" style="fill: none; stroke: #000000; stroke-width: 0.8; stroke-linejoin: miter; stroke-linecap: square"/>
   </g>
   <g id="text_21">
    <!-- Maximum mRNA production per control buffer (n=3) for plate 10 -->
    <g transform="translate(32.375625 16.318125) scale(0.12 -0.12)">
     <defs>
      <path id="DejaVuSans-78" d="M 3513 3500 
L 2247 1797 
L 3578 0 
L 2900 0 
L 1881 1375 
L 863 0 
L 184 0 
L 1544 1831 
L 300 3500 
L 978 3500 
L 1906 2253 
L 2834 3500 
L 3513 3500 
z
" transform="scale(0.015625)"/>
     </defs>
     <use xlink:href="#DejaVuSans-4d"/>
     <use xlink:href="#DejaVuSans-61" x="86.279297"/>
     <use xlink:href="#DejaVuSans-78" x="147.558594"/>
     <use xlink:href="#DejaVuSans-69" x="206.738281"/>
     <use xlink:href="#DejaVuSans-6d" x="234.521484"/>
     <use xlink:href="#DejaVuSans-75" x="331.933594"/>
     <use xlink:href="#DejaVuSans-6d" x="395.3125"/>
     <use xlink:href="#DejaVuSans-20" x="492.724609"/>
     <use xlink:href="#DejaVuSans-6d" x="524.511719"/>
     <use xlink:href="#DejaVuSans-52" x="621.923828"/>
     <use xlink:href="#DejaVuSans-4e" x="691.40625"/>
     <use xlink:href="#DejaVuSans-41" x="766.210938"/>
     <use xlink:href="#DejaVuSans-20" x="834.619141"/>
     <use xlink:href="#DejaVuSans-70" x="866.40625"/>
     <use xlink:href="#DejaVuSans-72" x="929.882812"/>
     <use xlink:href="#DejaVuSans-6f" x="968.746094"/>
     <use xlink:href="#DejaVuSans-64" x="1029.927734"/>
     <use xlink:href="#DejaVuSans-75" x="1093.404297"/>
     <use xlink:href="#DejaVuSans-63" x="1156.783203"/>
     <use xlink:href="#DejaVuSans-74" x="1211.763672"/>
     <use xlink:href="#DejaVuSans-69" x="1250.972656"/>
     <use xlink:href="#DejaVuSans-6f" x="1278.755859"/>
     <use xlink:href="#DejaVuSans-6e" x="1339.9375"/>
     <use xlink:href="#DejaVuSans-20" x="1403.316406"/>
     <use xlink:href="#DejaVuSans-70" x="1435.103516"/>
     <use xlink:href="#DejaVuSans-65" x="1498.580078"/>
     <use xlink:href="#DejaVuSans-72" x="1560.103516"/>
     <use xlink:href="#DejaVuSans-20" x="1601.216797"/>
     <use xlink:href="#DejaVuSans-63" x="1633.003906"/>
     <use xlink:href="#DejaVuSans-6f" x="1687.984375"/>
     <use xlink:href="#DejaVuSans-6e" x="1749.166016"/>
     <use xlink:href="#DejaVuSans-74" x="1812.544922"/>
     <use xlink:href="#DejaVuSans-72" x="1851.753906"/>
     <use xlink:href="#DejaVuSans-6f" x="1890.617188"/>
     <use xlink:href="#DejaVuSans-6c" x="1951.798828"/>
     <use xlink:href="#DejaVuSans-20" x="1979.582031"/>
     <use xlink:href="#DejaVuSans-62" x="2011.369141"/>
     <use xlink:href="#DejaVuSans-75" x="2074.845703"/>
     <use xlink:href="#DejaVuSans-66" x="2138.224609"/>
     <use xlink:href="#DejaVuSans-66" x="2173.429688"/>
     <use xlink:href="#DejaVuSans-65" x="2208.634766"/>
     <use xlink:href="#DejaVuSans-72" x="2270.158203"/>
     <use xlink:href="#DejaVuSans-20" x="2311.271484"/>
     <use xlink:href="#DejaVuSans-28" x="2343.058594"/>
     <use xlink:href="#DejaVuSans-6e" x="2382.072266"/>
     <use xlink:href="#DejaVuSans-3d" x="2445.451172"/>
     <use xlink:href="#DejaVuSans-33" x="2529.240234"/>
     <use xlink:href="#DejaVuSans-29" x="2592.863281"/>
     <use xlink:href="#DejaVuSans-20" x="2631.876953"/>
     <use xlink:href="#DejaVuSans-66" x="2663.664062"/>
     <use xlink:href="#DejaVuSans-6f" x="2698.869141"/>
     <use xlink:href="#DejaVuSans-72" x="2760.050781"/>
     <use xlink:href="#DejaVuSans-20" x="2801.164062"/>
     <use xlink:href="#DejaVuSans-70" x="2832.951172"/>
     <use xlink:href="#DejaVuSans-6c" x="2896.427734"/>
     <use xlink:href="#DejaVuSans-61" x="2924.210938"/>
     <use xlink:href="#DejaVuSans-74" x="2985.490234"/>
     <use xlink:href="#DejaVuSans-65" x="3024.699219"/>
     <use xlink:href="#DejaVuSans-20" x="3086.222656"/>
     <use xlink:href="#DejaVuSans-31" x="3118.009766"/>
     <use xlink:href="#DejaVuSans-30" x="3181.632812"/>
    </g>
   </g>
  </g>
 </g>
 <defs>
  <clipPath id="p2d2db6c352">
   <rect x="59.690625" y="22.318125" width="334.8" height="217.44"/>
  </clipPath>
 </defs>
</svg>
